<svg width="926" height="646" viewBox="0 0 926 646" fill="none" xmlns="http://www.w3.org/2000/svg">
<g id="undraw_percentages_0rur 1" clip-path="url(#clip0)">
<g id="form">
<path id="Vector" d="M645.997 487.5H643.997V506H645.997V487.5Z" fill="#F2F2F2"/>
<path id="Vector_2" d="M652.997 182.5H650.997V201H652.997V182.5Z" fill="#F2F2F2"/>
<path id="Vector_3" d="M241.997 258.5H239.997V277H241.997V258.5Z" fill="#F2F2F2"/>
<path id="Vector_4" d="M233.497 173V644H669.497V173H233.497ZM451.497 207C448.53 207 445.63 206.12 443.163 204.472C440.697 202.824 438.774 200.481 437.639 197.74C436.504 194.999 436.206 191.983 436.785 189.074C437.364 186.164 438.793 183.491 440.89 181.393C442.988 179.296 445.661 177.867 448.571 177.288C451.48 176.709 454.496 177.006 457.237 178.142C459.978 179.277 462.321 181.2 463.969 183.666C465.617 186.133 466.497 189.033 466.497 192C466.497 195.978 464.917 199.794 462.104 202.607C459.291 205.42 455.475 207 451.497 207V207Z" fill="#3F3D56"/>
<path id="Vector_5" d="M925.497 643H16.497V645H925.497V643Z" fill="#3F3D56"/>
<path id="Vector_6" d="M510.997 271.5H281.997C280.14 271.5 278.36 270.763 277.047 269.45C275.735 268.137 274.997 266.357 274.997 264.5C274.997 262.643 275.735 260.863 277.047 259.55C278.36 258.238 280.14 257.5 281.997 257.5H510.997C512.853 257.5 514.634 258.238 515.947 259.55C517.259 260.863 517.997 262.643 517.997 264.5C517.997 266.357 517.259 268.137 515.947 269.45C514.634 270.763 512.853 271.5 510.997 271.5V271.5Z" fill="#F2F2F2"/>
<path id="Vector_7" d="M510.997 343.5H281.997C280.14 343.5 278.36 342.763 277.047 341.45C275.735 340.137 274.997 338.357 274.997 336.5C274.997 334.643 275.735 332.863 277.047 331.55C278.36 330.238 280.14 329.5 281.997 329.5H510.997C512.853 329.5 514.634 330.238 515.947 331.55C517.259 332.863 517.997 334.643 517.997 336.5C517.997 338.357 517.259 340.137 515.947 341.45C514.634 342.763 512.853 343.5 510.997 343.5Z" fill="#F2F2F2"/>
<path id="Vector_8" d="M510.997 415.5H281.997C280.14 415.5 278.36 414.763 277.047 413.45C275.735 412.137 274.997 410.357 274.997 408.5C274.997 406.643 275.735 404.863 277.047 403.55C278.36 402.238 280.14 401.5 281.997 401.5H510.997C512.853 401.5 514.634 402.238 515.947 403.55C517.259 404.863 517.997 406.643 517.997 408.5C517.997 410.357 517.259 412.137 515.947 413.45C514.634 414.763 512.853 415.5 510.997 415.5Z" fill="#F2F2F2"/>
<path id="Vector_9" d="M510.997 487.5H281.997C280.14 487.5 278.36 486.763 277.047 485.45C275.735 484.137 274.997 482.357 274.997 480.5C274.997 478.643 275.735 476.863 277.047 475.55C278.36 474.238 280.14 473.5 281.997 473.5H510.997C512.853 473.5 514.634 474.238 515.947 475.55C517.259 476.863 517.997 478.643 517.997 480.5C517.997 482.357 517.259 484.137 515.947 485.45C514.634 486.763 512.853 487.5 510.997 487.5V487.5Z" fill="#F2F2F2"/>
<path id="Vector_10" d="M510.997 559.5H281.997C280.14 559.5 278.36 558.763 277.047 557.45C275.735 556.137 274.997 554.357 274.997 552.5C274.997 550.643 275.735 548.863 277.047 547.55C278.36 546.238 280.14 545.5 281.997 545.5H510.997C512.853 545.5 514.634 546.238 515.947 547.55C517.259 548.863 517.997 550.643 517.997 552.5C517.997 554.357 517.259 556.137 515.947 557.45C514.634 558.763 512.853 559.5 510.997 559.5Z" fill="#F2F2F2"/>
<path id="Vector_11" d="M605.997 257.5H603.997V271.5H605.997V257.5Z" fill="#7A98F3"/>
<path id="Vector_12" d="M620.997 272.5C619.415 272.5 617.868 272.031 616.552 271.152C615.237 270.273 614.211 269.023 613.606 267.561C613 266.1 612.842 264.491 613.151 262.939C613.459 261.387 614.221 259.962 615.34 258.843C616.459 257.724 617.884 256.962 619.436 256.654C620.988 256.345 622.597 256.503 624.058 257.109C625.52 257.714 626.77 258.74 627.649 260.055C628.528 261.371 628.997 262.918 628.997 264.5C628.994 266.621 628.151 268.654 626.651 270.154C625.151 271.654 623.118 272.498 620.997 272.5V272.5ZM620.997 258.5C619.81 258.5 618.65 258.852 617.664 259.511C616.677 260.17 615.908 261.108 615.454 262.204C615 263.3 614.881 264.507 615.112 265.671C615.344 266.834 615.915 267.904 616.754 268.743C617.593 269.582 618.662 270.153 619.826 270.385C620.99 270.616 622.197 270.497 623.293 270.043C624.389 269.589 625.326 268.82 625.986 267.833C626.645 266.847 626.997 265.687 626.997 264.5C626.995 262.909 626.362 261.384 625.238 260.259C624.113 259.134 622.588 258.502 620.997 258.5V258.5Z" fill="#7A98F3"/>
<path id="Vector_13" d="M605.997 329.5H603.997V343.5H605.997V329.5Z" fill="#7A98F3"/>
<path id="Vector_14" d="M620.997 344.5C619.415 344.5 617.868 344.031 616.552 343.152C615.237 342.273 614.211 341.023 613.606 339.561C613 338.1 612.842 336.491 613.151 334.939C613.459 333.387 614.221 331.962 615.34 330.843C616.459 329.724 617.884 328.962 619.436 328.654C620.988 328.345 622.597 328.503 624.058 329.109C625.52 329.714 626.77 330.74 627.649 332.055C628.528 333.371 628.997 334.918 628.997 336.5C628.994 338.621 628.151 340.654 626.651 342.154C625.151 343.654 623.118 344.498 620.997 344.5ZM620.997 330.5C619.81 330.5 618.65 330.852 617.664 331.511C616.677 332.17 615.908 333.108 615.454 334.204C615 335.3 614.881 336.507 615.112 337.671C615.344 338.834 615.915 339.904 616.754 340.743C617.593 341.582 618.662 342.153 619.826 342.385C620.99 342.616 622.197 342.497 623.293 342.043C624.389 341.589 625.326 340.82 625.986 339.833C626.645 338.847 626.997 337.687 626.997 336.5C626.995 334.909 626.362 333.384 625.238 332.259C624.113 331.134 622.588 330.502 620.997 330.5V330.5Z" fill="#7A98F3"/>
<path id="Vector_15" d="M605.997 401.5H603.997V415.5H605.997V401.5Z" fill="#7A98F3"/>
<path id="Vector_16" d="M620.997 416.5C619.415 416.5 617.868 416.031 616.552 415.152C615.237 414.273 614.211 413.023 613.606 411.561C613 410.1 612.842 408.491 613.151 406.939C613.459 405.387 614.221 403.962 615.34 402.843C616.459 401.724 617.884 400.962 619.436 400.654C620.988 400.345 622.597 400.503 624.058 401.109C625.52 401.714 626.77 402.74 627.649 404.055C628.528 405.371 628.997 406.918 628.997 408.5C628.994 410.621 628.151 412.654 626.651 414.154C625.151 415.654 623.118 416.498 620.997 416.5V416.5ZM620.997 402.5C619.81 402.5 618.65 402.852 617.664 403.511C616.677 404.17 615.908 405.108 615.454 406.204C615 407.3 614.881 408.507 615.112 409.671C615.344 410.834 615.915 411.904 616.754 412.743C617.593 413.582 618.662 414.153 619.826 414.385C620.99 414.616 622.197 414.497 623.293 414.043C624.389 413.589 625.326 412.82 625.986 411.833C626.645 410.847 626.997 409.687 626.997 408.5C626.995 406.909 626.362 405.384 625.238 404.259C624.113 403.134 622.588 402.502 620.997 402.5V402.5Z" fill="#7A98F3"/>
<path id="Vector_17" d="M605.997 473.5H603.997V487.5H605.997V473.5Z" fill="#7A98F3"/>
<path id="Vector_18" d="M620.997 488.5C619.415 488.5 617.868 488.031 616.552 487.152C615.237 486.273 614.211 485.023 613.606 483.561C613 482.1 612.842 480.491 613.151 478.939C613.459 477.387 614.221 475.962 615.34 474.843C616.459 473.724 617.884 472.962 619.436 472.654C620.988 472.345 622.597 472.503 624.058 473.109C625.52 473.714 626.77 474.74 627.649 476.055C628.528 477.371 628.997 478.918 628.997 480.5C628.994 482.621 628.151 484.654 626.651 486.154C625.151 487.654 623.118 488.498 620.997 488.5V488.5ZM620.997 474.5C619.81 474.5 618.65 474.852 617.664 475.511C616.677 476.17 615.908 477.108 615.454 478.204C615 479.3 614.881 480.507 615.112 481.671C615.344 482.834 615.915 483.904 616.754 484.743C617.593 485.582 618.662 486.153 619.826 486.385C620.99 486.616 622.197 486.497 623.293 486.043C624.389 485.589 625.326 484.82 625.986 483.833C626.645 482.847 626.997 481.687 626.997 480.5C626.995 478.909 626.362 477.384 625.238 476.259C624.113 475.134 622.588 474.502 620.997 474.5Z" fill="#7A98F3"/>
<path id="Vector_19" d="M605.997 545.5H603.997V559.5H605.997V545.5Z" fill="#7A98F3"/>
<path id="Vector_20" d="M620.997 560.5C619.415 560.5 617.868 560.031 616.552 559.152C615.237 558.273 614.211 557.023 613.606 555.561C613 554.1 612.842 552.491 613.151 550.939C613.459 549.387 614.221 547.962 615.34 546.843C616.459 545.724 617.884 544.962 619.436 544.654C620.988 544.345 622.597 544.503 624.058 545.109C625.52 545.714 626.77 546.74 627.649 548.055C628.528 549.371 628.997 550.918 628.997 552.5C628.994 554.621 628.151 556.654 626.651 558.154C625.151 559.654 623.118 560.498 620.997 560.5V560.5ZM620.997 546.5C619.81 546.5 618.65 546.852 617.664 547.511C616.677 548.17 615.908 549.108 615.454 550.204C615 551.3 614.881 552.507 615.112 553.671C615.344 554.834 615.915 555.904 616.754 556.743C617.593 557.582 618.662 558.153 619.826 558.385C620.99 558.616 622.197 558.497 623.293 558.043C624.389 557.589 625.326 556.82 625.986 555.833C626.645 554.847 626.997 553.687 626.997 552.5C626.995 550.909 626.362 549.384 625.238 548.259C624.113 547.134 622.588 546.502 620.997 546.5Z" fill="#7A98F3"/>
<path id="Vector_21" d="M620.997 268.5C623.206 268.5 624.997 266.709 624.997 264.5C624.997 262.291 623.206 260.5 620.997 260.5C618.788 260.5 616.997 262.291 616.997 264.5C616.997 266.709 618.788 268.5 620.997 268.5Z" fill="#7A98F3"/>
<path id="Vector_22" d="M620.997 484.5C623.206 484.5 624.997 482.709 624.997 480.5C624.997 478.291 623.206 476.5 620.997 476.5C618.788 476.5 616.997 478.291 616.997 480.5C616.997 482.709 618.788 484.5 620.997 484.5Z" fill="#7A98F3"/>
<path id="Vector_23" d="M620.997 556.5C623.206 556.5 624.997 554.709 624.997 552.5C624.997 550.291 623.206 548.5 620.997 548.5C618.788 548.5 616.997 550.291 616.997 552.5C616.997 554.709 618.788 556.5 620.997 556.5Z" fill="#7A98F3"/>
<path id="Vector_24" d="M451.497 199C455.363 199 458.497 195.866 458.497 192C458.497 188.134 455.363 185 451.497 185C447.631 185 444.497 188.134 444.497 192C444.497 195.866 447.631 199 451.497 199Z" fill="#3F3D56"/>
<path id="Vector_25" d="M451.497 14C455.363 14 458.497 10.866 458.497 7C458.497 3.13401 455.363 0 451.497 0C447.631 0 444.497 3.13401 444.497 7C444.497 10.866 447.631 14 451.497 14Z" fill="#3F3D56"/>
<path id="Vector_26" d="M452.497 6.99994H450.497V192H452.497V6.99994Z" fill="#3F3D56"/>
</g>
<g id="percent-bar-1">
<path id="Vector_27" d="M470.997 271.5H280.997C279.14 271.5 277.36 270.763 276.047 269.45C274.735 268.137 273.997 266.357 273.997 264.5C273.997 262.643 274.735 260.863 276.047 259.55C277.36 258.238 279.14 257.5 280.997 257.5H470.997C472.853 257.5 474.634 258.238 475.947 259.55C477.26 260.863 477.997 262.643 477.997 264.5C477.997 266.357 477.26 268.137 475.947 269.45C474.634 270.763 472.853 271.5 470.997 271.5V271.5Z" fill="#7A98F3"/>
</g>
<g id="percent-bar-2">
<path id="Vector_28" d="M411.997 343.5H280.997C279.14 343.5 277.36 342.763 276.047 341.45C274.735 340.137 273.997 338.357 273.997 336.5C273.997 334.643 274.735 332.863 276.047 331.55C277.36 330.238 279.14 329.5 280.997 329.5H411.997C413.853 329.5 415.634 330.238 416.947 331.55C418.26 332.863 418.997 334.643 418.997 336.5C418.997 338.357 418.26 340.137 416.947 341.45C415.634 342.763 413.853 343.5 411.997 343.5Z" fill="#7A98F3"/>
</g>
<g id="percent-bar-3">
<path id="Vector_29" d="M339.997 415.5H280.997C279.14 415.5 277.36 414.763 276.047 413.45C274.735 412.137 273.997 410.357 273.997 408.5C273.997 406.643 274.735 404.863 276.047 403.55C277.36 402.238 279.14 401.5 280.997 401.5H339.997C341.854 401.5 343.634 402.238 344.947 403.55C346.26 404.863 346.997 406.643 346.997 408.5C346.997 410.357 346.26 412.137 344.947 413.45C343.634 414.763 341.854 415.5 339.997 415.5V415.5Z" fill="#7A98F3"/>
</g>
<g id="percent-bar-4">
<path id="Vector_30" d="M488.997 487.5H280.997C279.14 487.5 277.36 486.763 276.047 485.45C274.735 484.137 273.997 482.357 273.997 480.5C273.997 478.643 274.735 476.863 276.047 475.55C277.36 474.238 279.14 473.5 280.997 473.5H488.997C490.853 473.5 492.634 474.238 493.947 475.55C495.26 476.863 495.997 478.643 495.997 480.5C495.997 482.357 495.26 484.137 493.947 485.45C492.634 486.763 490.853 487.5 488.997 487.5V487.5Z" fill="#7A98F3"/>
</g>
<g id="percent-bar-5">
<path id="Vector_31" d="M442.997 559.5H280.997C279.14 559.5 277.36 558.763 276.047 557.45C274.735 556.137 273.997 554.357 273.997 552.5C273.997 550.643 274.735 548.863 276.047 547.55C277.36 546.238 279.14 545.5 280.997 545.5H442.997C444.853 545.5 446.634 546.238 447.947 547.55C449.26 548.863 449.997 550.643 449.997 552.5C449.997 554.357 449.26 556.137 447.947 557.45C446.634 558.763 444.853 559.5 442.997 559.5V559.5Z" fill="#7A98F3"/>
</g>
<g id="skills-man">
<path id="Vector_32" d="M772.997 378.5H770.997V397H772.997V378.5Z" fill="#F2F2F2"/>
<path id="Vector_33" d="M833.997 378.5H831.997V397H833.997V378.5Z" fill="#F2F2F2"/>
<path id="Vector_34" d="M793.997 270H791.997V288.5H793.997V270Z" fill="#F2F2F2"/>
<path id="Vector_35" d="M732.997 270H730.997V288.5H732.997V270Z" fill="#F2F2F2"/>
<path id="Vector_36" d="M856.614 384.479V409.254C856.614 409.254 862.578 449.169 862.578 484.037C862.578 518.906 852.943 600.112 852.943 600.112C852.943 600.112 833.674 606.994 832.297 596.442C830.921 585.89 827.251 529.917 827.251 521.658C827.251 513.4 811.193 450.545 811.193 450.545L801.1 520.282C801.1 520.282 804.311 602.865 801.1 605.159C797.888 607.453 782.289 611.582 780.454 607.453C778.619 603.324 768.984 514.777 768.984 514.777C768.984 514.777 761.184 399.16 765.772 392.279C770.36 385.397 774.489 379.891 774.489 379.891C774.489 379.891 840.097 363.833 856.614 384.479Z" fill="#2F2E41"/>
<path id="Vector_37" d="M850.649 597.359L851.8 604.838C852.185 607.39 852.436 609.959 852.552 612.537C852.731 616.294 853.356 622.082 855.497 623C858.709 624.376 879.553 641.956 864.872 642.873C850.19 643.791 842.846 645.376 838.497 642C833.356 638.008 839.179 639.816 836.885 639.816C834.591 639.816 831.839 639.816 830.921 636.145C830.003 632.475 832.297 626.052 832.297 626.052V597.359H850.649Z" fill="#2F2E41"/>
<path id="Vector_38" d="M782.145 597L780.995 604.479C780.609 607.03 780.358 609.6 780.243 612.178C780.064 615.935 779.438 621.723 777.297 622.641C774.086 624.017 753.241 641.596 767.923 642.514C782.604 643.432 789.949 645.017 794.297 641.641C799.439 637.649 793.615 639.456 795.909 639.456C798.203 639.456 800.956 639.456 801.873 635.786C802.791 632.116 800.497 625.692 800.497 625.692V597H782.145Z" fill="#2F2E41"/>
<path id="Vector_39" d="M795.135 185.362C795.135 185.362 802.935 204.632 808.44 207.843C813.946 211.055 811.193 225.736 811.193 225.736L797.429 245.006H786.418L773.113 222.066C773.113 222.066 772.195 206.926 769.443 203.255C766.69 199.585 795.135 185.362 795.135 185.362Z" fill="#FFB9B9"/>
<path id="Vector_40" opacity="0.1" d="M795.135 185.362C795.135 185.362 802.935 204.632 808.44 207.843C813.946 211.055 811.193 225.736 811.193 225.736L797.429 245.006H786.418L773.113 222.066C773.113 222.066 772.195 206.926 769.443 203.255C766.69 199.585 795.135 185.362 795.135 185.362Z" fill="black"/>
<path id="Vector_41" d="M806.605 224.819L827.251 229.407L842.391 381.726C842.391 381.726 834.133 383.103 825.874 394.114C817.616 405.125 807.523 403.29 802.476 400.537C797.429 397.784 777.242 389.984 776.783 386.773C776.325 383.561 777.701 327.13 777.701 327.13L764.855 239.041L771.278 229.407H782.748L791.924 237.206L806.605 224.819Z" fill="#7A98F3"/>
<path id="Vector_42" d="M775.407 209.22C788.583 209.22 799.264 198.538 799.264 185.362C799.264 172.186 788.583 161.505 775.407 161.505C762.231 161.505 751.55 172.186 751.55 185.362C751.55 198.538 762.231 209.22 775.407 209.22Z" fill="#FFB9B9"/>
<path id="Vector_43" d="M809.817 217.019C809.817 217.019 854.778 221.607 858.908 231.242C863.037 240.876 856.155 283.544 856.155 283.544C856.155 283.544 872.671 320.707 872.213 329.424C871.754 338.141 887.812 397.784 870.377 390.902C852.943 384.02 858.449 366.127 849.732 378.973C841.015 391.82 837.344 389.984 837.344 389.984C837.344 389.984 828.627 404.207 825.874 402.831C823.122 401.454 821.286 390.902 827.251 385.855C833.215 380.809 832.297 372.092 820.828 355.575C809.358 339.058 797.429 252.346 804.311 239.041C811.193 225.736 809.817 217.019 809.817 217.019Z" fill="#575A89"/>
<path id="Vector_44" d="M856.614 393.196L848.814 400.537L839.179 394.114L843.309 384.479L856.614 393.196Z" fill="#FFB9B9"/>
<path id="Vector_45" d="M776.783 224.819C776.783 224.819 741.915 237.665 741.915 251.429C741.915 265.193 763.02 325.295 763.02 325.295C763.02 325.295 763.02 340.894 762.102 344.564C761.184 348.234 746.749 380.247 759.349 383.103C767.214 384.885 773.676 389.569 774.26 396.178C774.953 404.027 768.945 413.934 769.443 415.677C770.36 418.889 775.866 423.476 775.407 421.182C774.948 418.889 779.077 385.855 785.5 371.174C791.924 356.493 782.748 257.852 780.913 245.006C780.027 238.186 778.647 231.439 776.783 224.819V224.819Z" fill="#575A89"/>
<path id="Vector_46" d="M758.432 392.278L766.69 412.007L772.884 399.39L765.772 383.561L758.432 392.278Z" fill="#FFB9B9"/>
<path id="Vector_47" d="M802.284 200.143C802.284 200.143 809.817 203.255 814.404 203.255C818.992 203.255 837.803 212.89 831.38 218.854C824.957 224.819 815.322 226.195 810.734 234.912C806.146 243.629 803.852 245.006 803.852 245.006L795.684 234.033C795.684 234.033 807.064 221.148 806.605 217.019C806.146 212.89 802.284 200.143 802.284 200.143Z" fill="#7A98F3"/>
<path id="Vector_48" d="M771.874 211.174C771.874 211.174 766.231 213.349 764.855 217.019C763.478 220.69 754.761 227.571 758.432 229.407C762.102 231.242 778.16 238.582 781.371 239.959C784.583 241.335 790.568 236.054 790.568 236.054C790.568 236.054 782.518 231.471 782.518 228.26C782.518 225.048 771.874 211.174 771.874 211.174Z" fill="#7A98F3"/>
<path id="Vector_49" d="M752.926 245.006L741.915 247.758C741.915 247.758 726.775 315.66 731.363 332.635C735.951 349.611 757.514 400.537 757.514 400.537L771.278 384.479C771.278 384.479 765.274 347.964 761.853 345.576C758.432 343.188 760.726 338.141 760.726 336.764C760.726 335.388 762.102 336.306 758.891 333.094C755.679 329.883 770.819 311.99 766.69 306.943C762.561 301.896 752.926 245.006 752.926 245.006Z" fill="#575A89"/>
<path id="Vector_50" opacity="0.1" d="M861.431 257.622L854.778 232.618C854.778 232.618 872.671 245.464 876.342 264.275C880.012 283.086 894.235 320.707 885.059 337.223C875.883 353.74 859.825 401.454 854.32 400.537C848.814 399.619 835.509 388.149 835.05 386.314C834.591 384.479 858.907 342.27 855.237 339.058C851.567 335.847 852.484 327.589 855.237 325.753C857.99 323.918 861.201 315.201 858.907 315.66C856.614 316.119 849.732 311.531 851.108 306.484C852.484 301.437 844.226 267.487 844.226 267.487L861.431 257.622Z" fill="black"/>
<path id="Vector_51" d="M852.484 229.407L858.907 231.242C858.907 231.242 876.801 244.088 880.471 262.899C884.141 281.709 898.364 319.33 889.188 335.847C880.012 352.363 863.954 400.078 858.449 399.16C852.943 398.243 839.638 386.773 839.179 384.938C838.721 383.103 863.037 340.894 859.366 337.682C855.696 334.47 856.614 326.212 859.366 324.377C862.119 322.542 865.331 313.825 863.037 314.284C860.743 314.742 853.861 310.154 855.237 305.108C856.614 300.061 848.355 266.11 848.355 266.11L852.484 229.407Z" fill="#575A89"/>
<path id="Vector_52" d="M793.921 163.827L798.395 162.2C798.395 162.2 789.039 152.844 776.022 153.658L779.684 149.997C779.684 149.997 770.734 146.743 762.599 155.285C758.322 159.776 753.374 165.054 750.289 171H745.497L747.497 175L740.497 179L747.682 178.282C747.001 181.735 747.235 185.306 748.361 188.641L749.988 193.116C749.988 193.116 756.497 180.099 756.497 178.472V182.539C756.497 182.539 760.972 178.878 760.972 176.438L763.412 179.285L764.633 174.811L779.684 179.285L777.243 175.624L786.599 176.844L782.938 172.37C782.938 172.37 793.514 177.658 793.921 182.133C794.328 186.607 799.616 192.302 799.616 192.302L802.056 188.234C802.056 188.234 805.717 169.929 793.921 163.827Z" fill="#2F2E41"/>
<path id="Vector_53" d="M792.997 188C794.93 188 796.497 185.538 796.497 182.5C796.497 179.462 794.93 177 792.997 177C791.064 177 789.497 179.462 789.497 182.5C789.497 185.538 791.064 188 792.997 188Z" fill="#FFB9B9"/>
</g>
</g>
<defs>
<clipPath id="clip0">
<rect width="925.497" height="645.184" fill="white"/>
</clipPath>
</defs>
</svg>
